<?xml version="1.0" encoding="UTF-8"?>
<svg width="137px" height="137px" viewBox="0 0 137 137" version="1.1" xmlns="http://www.w3.org/2000/svg" xmlns:xlink="http://www.w3.org/1999/xlink">
    <!-- Generator: Sketch 52.2 (67145) - http://www.bohemiancoding.com/sketch -->
    <title>pay-per-click</title>
    <desc>Created with Sketch.</desc>
    <g id="Page-1" stroke="none" stroke-width="1" fill="none" fill-rule="evenodd">
        <g id="Главная-страница" transform="translate(-457.000000, -3288.000000)">
            <g id="customer-problems" transform="translate(320.000000, 3282.000000)">
                <g id="Group-29">
                    <g id="Group-62">
                        <g id="pay-per-click" transform="translate(137.000000, 0.000000)">
                            <circle id="Oval" fill="#A53535" cx="68.4277344" cy="74.5722656" r="68.4277344"></circle>
                            <g id="Group-42" transform="translate(9.000000, 62.000000)">
                                <circle id="Oval" fill="#FFD00D" cx="10.3776172" cy="9.84632813" r="9.63658008"></circle>
                                <path d="M6.28396289,9.84688672 C6.28396289,5.48817969 9.1785957,1.80704688 13.1496387,0.616683594 C12.2718086,0.353585938 11.3420293,0.210306641 10.3784551,0.210306641 C5.05645313,0.210306641 0.741875,4.52488477 0.741875,9.84688672 C0.741875,15.1688887 5.05645313,19.4834668 10.3784551,19.4834668 C11.3420293,19.4834668 12.2718086,19.3401875 13.1496387,19.0770898 C9.1785957,17.8864473 6.28396289,14.2055938 6.28396289,9.84688672 Z" id="Path" fill="#FFAF10"></path>
                            </g>
                            <path d="M110.851813,51.7280156 C98.674748,51.7280156 88.4468965,43.2228672 85.7958105,31.8412402 L26.6094512,31.8412402 C25.0733184,31.8412402 23.8164824,33.0980762 23.8164824,34.634209 L23.8164824,67.3052402 C23.8164824,68.841373 25.0733184,70.098209 26.6094512,70.098209 L110.245738,70.098209 C111.781871,70.098209 113.038707,68.841373 113.038707,67.3052402 L113.038707,51.6341719 C112.317842,51.6950586 111.588318,51.7280156 110.851813,51.7280156 Z" id="Path" fill="#91E0E8"></path>
                            <path d="M29.3585703,67.3052402 L29.3585703,34.634209 C29.3585703,33.0980762 30.6154063,31.8412402 32.1515391,31.8412402 L26.6094512,31.8412402 C25.0733184,31.8412402 23.8164824,33.0980762 23.8164824,34.634209 L23.8164824,67.3052402 C23.8164824,68.841373 25.0733184,70.098209 26.6094512,70.098209 L32.1515391,70.098209 C30.6154063,70.098209 29.3585703,68.841373 29.3585703,67.3052402 Z" id="Path" fill="#5DC1D8"></path>
                            <path d="M62.7018691,128.162633 L62.7018691,142.759525 C64.5901953,142.915932 66.4991895,143 68.4277344,143 C78.106209,143 87.3132305,140.98627 95.6589004,137.361834 L95.6589004,128.162633 L62.7018691,128.162633 Z" id="Path" fill="#37C47A"></path>
                            <path d="M68.243957,128.164588 L62.7018691,128.164588 L62.7018691,142.76148 C64.5301465,142.912859 66.3779746,142.994693 68.243957,143 L68.243957,128.164588 Z" id="Path" fill="#02AF8E"></path>
                            <path d="M96.2309004,114.522611 L96.2309004,79.4507441 C96.2309004,77.1465449 94.3456465,75.261291 92.0414473,75.261291 L90.3662246,75.261291 C88.7097148,75.261291 87.2741289,76.2379922 86.5954375,77.6417383 C85.9167461,76.2379922 84.4811602,75.261291 82.8246504,75.261291 L81.1494277,75.261291 C79.492918,75.261291 78.057332,76.2379922 77.3786406,77.6417383 C76.6999492,76.2379922 75.2643633,75.261291 73.6078535,75.261291 L71.9326309,75.261291 C70.5637969,75.261291 69.3460625,75.9296484 68.5805098,76.9532715 L68.5805098,60.6445684 C68.5805098,58.3403691 66.6952559,56.4551152 64.3910566,56.4551152 L62.715834,56.4551152 C60.4116348,56.4551152 58.5263809,58.3403691 58.5263809,60.6445684 L58.5263809,94.9869121 L53.8660332,90.3265645 C52.2366152,88.6974258 49.5707266,88.6974258 47.9413086,90.3268437 L46.1982168,92.0699355 C44.5690781,93.6993535 44.5690781,96.3655215 46.1982168,97.9946602 L62.726168,114.522611 L96.2309004,114.522611 Z" id="Path" fill="#FFE2B8"></path>
                            <path d="M68.2682559,114.522611 L51.7403047,97.9946602 C50.111166,96.3655215 50.111166,93.6993535 51.7403047,92.0699355 L53.4833965,90.3268438 C53.5448418,90.2653984 53.6104766,90.2109355 53.6749941,90.153959 C52.0346836,88.7044082 49.5095605,88.7585918 47.9415879,90.3268438 L46.1984961,92.0699355 C44.5693574,93.6993535 44.5693574,96.3655215 46.1984961,97.9946602 L62.7264473,114.522611 L68.2682559,114.522611 Z" id="Path" fill="#FFC987"></path>
                            <g id="Group" transform="translate(59.210938, 114.232422)" fill="#0F9390">
                                <path d="M39.7995254,12.8130234 C39.7995254,13.5810898 39.1711074,14.2095078 38.403041,14.2095078 L1.53585352,14.2095078 C0.767787109,14.2095078 0.139369141,13.5810898 0.139369141,12.8130234 L0.139369141,1.40737695 C0.139369141,0.639310547 0.767787109,0.0108925781 1.53585352,0.0108925781 L38.403041,0.0108925781 C39.1711074,0.0108925781 39.7995254,0.639310547 39.7995254,1.40737695 L39.7995254,12.8130234 Z" id="Path"></path>
                                <path d="M5.68145703,12.8130234 L5.68145703,1.40737695 C5.68145703,0.639310547 6.309875,0.0108925781 7.07794141,0.0108925781 L1.53585352,0.0108925781 C0.767787109,0.0108925781 0.139369141,0.639310547 0.139369141,1.40737695 L0.139369141,12.8130234 C0.139369141,13.5810898 0.767787109,14.2095078 1.53585352,14.2095078 L7.07794141,14.2095078 C6.309875,14.2095078 5.68145703,13.5810898 5.68145703,12.8130234 Z" id="Path"></path>
                            </g>
                            <g id="Group" transform="translate(46.921875, 44.128906)" fill="#FFFFFF">
                                <circle id="Oval" cx="44.8271484" cy="77.2144141" r="3.07226562"></circle>
                            </g>
                            <circle id="Oval" fill="#FFD00D" cx="115.458535" cy="91.1206055" r="9.63658008"></circle>
                            <path d="M111.363484,91.1197676 C111.363484,86.7610605 114.258117,83.0799277 118.22916,81.8895645 C117.351609,81.6264668 116.421551,81.4831875 115.457977,81.4831875 C110.135975,81.4831875 105.821396,85.7977656 105.821396,91.1197676 C105.821396,96.4420488 110.135975,100.756348 115.457977,100.756348 C116.421551,100.756348 117.35133,100.613068 118.22916,100.349971 C114.258396,99.1593281 111.363484,95.4784746 111.363484,91.1197676 Z" id="Path" fill="#FFAF10"></path>
                        </g>
                    </g>
                </g>
            </g>
        </g>
    </g>
</svg>